<?xml version="1.0" encoding="UTF-8"?>
<svg width="247px" height="105px" viewBox="0 0 247 105" version="1.1" xmlns="http://www.w3.org/2000/svg" xmlns:xlink="http://www.w3.org/1999/xlink">
    <title>Better Vision Logo Color@1x</title>
    <g id="Symbols" stroke="none" stroke-width="1" fill="none" fill-rule="evenodd">
        <g id="Bettor-Vision-Logo-/-Color" fill-rule="nonzero">
            <g id="Better-Vision-Logo-Color">
                <path d="M138.518164,58 C138.518164,53.24 138.518164,49.21 138.518164,45.19 C138.518164,43.95 138.118164,43.57 136.898164,43.58 C132.808164,43.64 128.708164,43.65 124.608164,43.58 C123.338164,43.58 123.018164,44.04 123.028164,45.23 C123.088164,52.23 123.028164,59.32 123.138164,66.37 C123.138164,69.61 123.858164,70.16 127.138164,70.18 C131.568164,70.18 131.568164,70.18 131.568164,74.56 C131.568164,76.17 131.568164,77.79 131.568164,79.39 C131.568164,80.24 131.318164,80.62 130.418164,80.59 C126.118164,80.43 121.798164,80.92 117.508164,80.2 C112.368164,79.34 109.658164,76.33 109.328164,71.05 C108.808164,62.86 109.198164,54.67 109.078164,46.49 C109.078164,43.22 109.428164,43.63 106.148164,43.61 C102.438164,43.61 102.438164,43.61 102.438164,39.95 C102.438164,39.75 102.438164,39.55 102.438164,39.35 C102.518164,37.62 101.748164,35.44 102.748164,34.27 C103.748164,33.1 105.928164,33.92 107.588164,33.93 C108.938164,33.93 109.108164,33.32 109.098164,32.22 C109.098164,28.33 109.098164,24.43 109.098164,20.54 C109.098164,19.22 109.478164,18.82 110.818164,18.85 C114.318164,18.95 117.818164,18.96 121.328164,18.85 C122.798164,18.85 123.128164,19.33 123.098164,20.69 C123.018164,24.45 123.098164,28.21 123.038164,31.97 C123.038164,33.4 123.308164,33.97 124.908164,33.97 C128.908164,33.86 132.828164,33.87 136.788164,33.97 C138.278164,33.97 138.588164,33.47 138.548164,32.12 C138.468164,28.3 138.548164,24.47 138.498164,20.64 C138.498164,19.41 138.708164,18.85 140.128164,18.89 C143.698164,19 147.278164,18.99 150.848164,18.89 C152.138164,18.89 152.428164,19.29 152.408164,20.49 C152.348164,24.38 152.408164,28.28 152.408164,32.17 C152.408164,33.6 152.868164,34.04 154.248164,33.96 C156.068164,33.86 157.898164,33.96 159.708164,33.96 C160.778164,33.96 161.138164,34.33 161.108164,35.37 C161.108164,37.72 161.108164,40.06 161.108164,42.37 C161.108164,43.37 160.778164,43.68 159.818164,43.66 C157.818164,43.66 155.908164,43.66 153.958164,43.66 C152.828164,43.66 152.408164,44.07 152.428164,45.2 C152.558164,52.44 152.178164,59.69 152.658164,66.93 C152.848164,69.64 153.458164,70.19 156.128164,70.25 L156.728164,70.25 C161.098164,70.25 161.138164,70.25 161.078164,74.53 C161.078164,76.53 161.948164,79.09 160.668164,80.33 C159.388164,81.57 156.938164,80.64 154.988164,80.64 C152.228695,80.7751631 149.462622,80.6445616 146.728164,80.25 C142.078164,79.38 139.458164,76.53 138.908164,71.83 C138.358164,67.13 138.648164,62.11 138.518164,58 Z" id="Path" fill="#13294B"></path>
                <path d="M26.1181639,71.76 C29.7564041,71.7840774 33.2530405,70.3514966 35.8285375,67.7816353 C38.4040344,65.2117741 39.8442714,61.7182842 39.8282976,58.08 C39.7460431,50.4972855 33.5813158,44.3905057 25.9981639,44.38 C18.5414584,44.5859173 12.5558252,50.6023363 12.3881639,58.06 C12.3908135,61.6978529 13.8391719,65.1855092 16.4143348,67.7550455 C18.9894978,70.3245817 22.4803139,71.7653078 26.1181639,71.76 Z M18.1181639,82.9 C5.16627043,78.7491579 -2.41836677,65.3388924 0.698163911,52.1 C2.80816391,43.17 4.99816391,34.25 6.99816391,25.31 L9.16816391,15.84 C9.85816391,13.39 10.3881639,10.89 10.9381639,8.41 C10.987054,7.66846245 11.4818742,7.03113406 12.1881639,6.8 C18.3981639,4.62 24.5881639,2.38 31.1881639,0 C30.0881639,5 29.0481639,9.65 27.9981639,14.27 C26.7581639,19.62 25.5481639,24.97 24.2281639,30.27 C23.8381639,31.84 24.2281639,32.14 25.8081639,32.13 C40.7381639,32.13 52.4181639,43.67 52.3081639,58.27 C52.2027665,70.8015607 43.1926044,81.4835385 30.8581639,83.7 C25.1481639,84.85 18.0781639,82.9 18.0781639,82.9 L18.1181639,82.9 Z" id="Shape" fill="#4B9CD3"></path>
                <path d="M69.1581639,51.24 L87.3381639,51.24 C88.6081639,51.24 88.2581639,50.47 88.1081639,49.73 C87.1081639,44.88 83.7881639,42.47 78.3981639,42.64 C73.4281639,42.79 69.9981639,46 69.1581639,51.24 Z M85.7681639,61 C80.7681639,61 75.7681639,61 70.7681639,61 C69.2981639,61 68.6981639,61.2 69.1681639,62.91 C70.2481639,66.83 72.3681639,69.78 76.4381639,70.76 C80.5081639,71.74 84.5081639,71.31 87.4381639,67.64 C87.8490835,67.1071562 88.5100674,66.8298469 89.1781639,66.91 C92.9481639,66.91 96.7281639,66.97 100.498164,66.91 C101.958164,66.91 101.998164,67.38 101.498164,68.52 C98.4981639,75.84 92.8081639,79.76 85.3381639,81.36 C80.9770859,82.2718606 76.4629633,82.1485614 72.1581639,81 C62.9221043,78.7362921 56.1126403,70.9014029 55.1581639,61.44 C54.2981639,53.99 55.2481639,46.9 60.0281639,40.87 C66.4981639,32.7 75.3381639,30.72 85.0281639,32.74 C94.5281639,34.74 99.4781639,41.43 101.618164,50.47 C102.229836,53.3600082 102.538164,56.3059704 102.538164,59.26 C102.538164,60.57 102.178164,60.97 100.858164,60.95 C95.8781639,60.91 90.8281639,61 85.7681639,61 Z" id="Shape" fill="#13294B"></path>
                <path d="M175.698164,57.57 C175.72502,58.9815624 175.902696,60.3862096 176.228164,61.76 C177.278164,66.97 180.758164,70.37 185.418164,70.84 C190.878164,71.38 195.128164,69.12 196.918164,64.35 C198.866172,59.3524643 198.740196,53.7843221 196.568164,48.88 C194.918164,45.08 191.748164,43.28 187.628164,43.1 C183.218164,42.9 179.728164,44.45 177.628164,48.43 C176.168164,51 175.808164,53.88 175.698164,57.57 Z M187.088164,81.84 C175.158164,81.84 166.088164,75.51 162.948164,65.09 C159.548164,54 163.348164,42.24 172.168164,36.27 C182.668164,29.16 202.818164,30.27 209.788164,45.67 C215.418164,58.12 211.148164,72.67 199.858164,78.78 C195.947591,80.9128718 191.540705,81.968868 187.088164,81.84 Z" id="Shape" fill="#13294B"></path>
                <path d="M230.768164,40.32 C233.418164,33.51 238.938164,32.06 245.378164,32.0895479 C246.578164,32.0895479 247.028164,32.39 246.988164,33.66 C246.908164,36.95 246.898164,40.24 246.988164,43.52 C246.988164,44.98 246.428164,45.2 245.198164,45.02 C243.457064,44.7910301 241.688155,44.8996771 239.988164,45.34 C234.618164,46.67 232.088164,50.34 231.518164,57.08 C230.908164,64.25 231.178164,71.42 231.188164,78.59 C231.188164,80.32 230.678164,80.71 229.038164,80.59 C225.678164,80.46 222.308164,80.52 218.938164,80.59 C217.818164,80.59 217.268164,80.46 217.27803,79.1 C217.331497,64.3533333 217.331497,49.6 217.27803,34.84 C217.27803,33.76 217.508164,33.3 218.708164,33.33 C222.278164,33.41 225.848164,33.4 229.418164,33.33 C230.498164,33.33 230.808164,33.66 230.768164,34.71 C230.718164,36.6 230.768164,38.46 230.768164,40.32 Z" id="Path" fill="#13294B"></path>
                <path d="M68.3081639,104.76 L61.8481639,88.12 L63.9381639,88.12 L68.0981639,99 C68.2881639,99.49 68.4481639,99.93 68.5981639,100.31 C68.7481639,100.69 68.8781639,101.05 68.9881639,101.39 C69.0981639,101.73 69.2281639,102.06 69.3381639,102.39 L69.6981639,103.48 L69.0781639,103.48 C69.2381639,102.94 69.3981639,102.48 69.5481639,101.98 L70.0181639,100.57 C70.1881639,100.09 70.3981639,99.57 70.6581639,98.87 L74.7881639,88.13 L76.8781639,88.13 L70.2281639,104.76 L68.3081639,104.76 Z" id="Path" fill="#4B9CD3"></path>
                <polygon id="Path" fill="#4B9CD3" points="95.8481639 104.76 95.8481639 103 98.5481639 103 98.5481639 89.88 95.8481639 89.88 95.8481639 88.12 103.098164 88.12 103.098164 89.88 100.408164 89.88 100.408164 103 103.098164 103 103.098164 104.76"></polygon>
                <path d="M128.808164,105 C127.99846,105.003858 127.192793,104.885761 126.418164,104.65 C125.694138,104.408183 125.017469,104.042782 124.418164,103.57 C123.777031,103.075954 123.219862,102.481641 122.768164,101.81 L124.058164,100.39 C124.648955,101.295537 125.434805,102.05747 126.358164,102.62 C127.179592,103.056033 128.098323,103.276254 129.028164,103.26 C129.711491,103.277746 130.391474,103.158749 131.028164,102.91 C131.572791,102.707349 132.052891,102.361953 132.418164,101.91 C132.74657,101.490804 132.922865,100.972498 132.918164,100.44 C132.926684,100.097903 132.865439,99.7576542 132.738164,99.44 C132.616788,99.1497356 132.432328,98.8901254 132.198164,98.68 C131.935087,98.4415807 131.638631,98.2428206 131.318164,98.09 C130.932741,97.8957233 130.531247,97.7351256 130.118164,97.61 L128.598164,97.18 C127.867155,97.0176316 127.151251,96.7934934 126.458164,96.51 C125.889156,96.2657948 125.365201,95.9277599 124.908164,95.51 C124.479828,95.1547918 124.137873,94.7068315 123.908164,94.2 C123.679915,93.6385726 123.570941,93.0358064 123.588164,92.43 C123.581043,91.8028673 123.721489,91.1828475 123.998164,90.62 C124.280656,90.0675114 124.675819,89.5803707 125.158164,89.19 C125.672691,88.7682427 126.263372,88.4491393 126.898164,88.25 C127.581065,88.058778 128.289456,87.9744457 128.998164,88 C129.777991,87.9909286 130.554315,88.1056897 131.298164,88.34 C131.95746,88.5531645 132.568868,88.8928354 133.098164,89.34 C133.636165,89.7912862 134.095716,90.3285548 134.458164,90.93 L133.148164,92.21 C132.825896,91.7053714 132.439315,91.2448362 131.998164,90.84 C131.593802,90.4699255 131.126422,90.1752727 130.618164,89.97 C130.087629,89.7700634 129.52512,89.6684052 128.958164,89.67 C128.322973,89.6577665 127.692417,89.7804693 127.108164,90.03 C126.608614,90.2439634 126.176566,90.5896021 125.858164,91.03 C125.558682,91.4460693 125.400918,91.9474079 125.408164,92.46 C125.401324,92.8243059 125.472944,93.1858192 125.618164,93.52 C125.771256,93.844078 126.005495,94.1230973 126.298164,94.33 C126.672917,94.5942315 127.083811,94.8030467 127.518164,94.95 C128.107521,95.1555392 128.708583,95.3258399 129.318164,95.46 C130.078634,95.6304419 130.824324,95.8611711 131.548164,96.15 C132.158829,96.4021484 132.731079,96.7387657 133.248164,97.15 C133.695686,97.4997894 134.060952,97.9435703 134.318164,98.45 C134.569321,98.9740018 134.695951,99.5489688 134.688164,100.13 C134.708416,101.045089 134.450369,101.944763 133.948164,102.71 C133.429705,103.465434 132.713639,104.063886 131.878164,104.44 C130.906359,104.843069 129.859693,105.033992 128.808164,105 Z" id="Path" fill="#4B9CD3"></path>
                <polygon id="Path" fill="#4B9CD3" points="154.358164 104.76 154.358164 103 157.058164 103 157.058164 89.88 154.358164 89.88 154.358164 88.12 161.618164 88.12 161.618164 89.88 158.918164 89.88 158.918164 103 161.618164 103 161.618164 104.76"></polygon>
                <path d="M188.998164,103.17 C189.859583,103.180555 190.713962,103.013764 191.508164,102.68 C192.268266,102.368147 192.950905,101.893714 193.508164,101.29 C194.075119,100.674507 194.516684,99.9544168 194.808164,99.17 C195.435081,97.4314564 195.435081,95.5285436 194.808164,93.79 C194.516691,93.0025927 194.075199,92.279224 193.508164,91.66 C192.948779,91.0562594 192.266904,90.5789475 191.508164,90.26 C189.906422,89.6021005 188.109906,89.6021005 186.508164,90.26 C185.752599,90.5846738 185.071843,91.061203 184.508164,91.66 C183.940729,92.2770994 183.502164,93.001243 183.218164,93.79 C182.605206,95.5309563 182.605206,97.4290437 183.218164,99.17 C183.502381,99.9556717 183.940998,100.6765 184.508164,101.29 C185.063687,101.895704 185.746801,102.370468 186.508164,102.68 C187.296578,103.009742 188.143597,103.176424 188.998164,103.17 Z M188.998164,105 C187.880081,105.012545 186.771067,104.798226 185.738164,104.37 C184.76162,103.960235 183.877432,103.358307 183.138164,102.6 C182.388773,101.825078 181.803728,100.906693 181.418164,99.9 C180.605163,97.6993541 180.605163,95.2806459 181.418164,93.08 C181.807139,92.0720614 182.391697,91.1510435 183.138164,90.37 C183.87435,89.6055383 184.75916,88.9997835 185.738164,88.59 C187.837218,87.7498531 190.17911,87.7498531 192.278164,88.59 C193.257168,88.9997835 194.141978,89.6055383 194.878164,90.37 C195.624631,91.1510435 196.209188,92.0720614 196.598164,93.08 C197.411534,95.2736994 197.411534,97.6863006 196.598164,99.88 C196.209188,100.887939 195.624631,101.808956 194.878164,102.59 C194.141978,103.354462 193.257168,103.960217 192.278164,104.37 C191.238258,104.798224 190.122719,105.012489 188.998164,105 Z" id="Shape" fill="#4B9CD3"></path>
                <path d="M217.528164,104.76 L217.528164,88.12 L219.218164,88.12 L230.148164,102.53 L229.818164,102.95 C229.753467,102.573228 229.7167,102.192191 229.708164,101.81 C229.708164,101.31 229.658164,100.73 229.638164,100.09 C229.618164,99.45 229.638164,98.78 229.578164,98.09 C229.518164,97.4 229.578164,96.71 229.578164,96.09 C229.578164,95.47 229.578164,94.82 229.578164,94.29 L229.578164,88.13 L231.438164,88.13 L231.438164,104.77 L229.688164,104.77 L218.758164,90.55 L219.048164,90.05 C219.048164,90.69 219.138164,91.31 219.178164,91.93 C219.218164,92.55 219.248164,93.14 219.278164,93.71 C219.308164,94.28 219.278164,94.8 219.338164,95.28 C219.398164,95.76 219.338164,96.16 219.338164,96.49 C219.338164,96.82 219.338164,97.06 219.338164,97.2 L219.338164,104.76 L217.528164,104.76 Z" id="Path" fill="#4B9CD3"></path>
            </g>
        </g>
    </g>
</svg>