<svg width="358" height="99" viewBox="0 0 358 99" fill="none" xmlns="http://www.w3.org/2000/svg">
<g clip-path="url(#clip0_1394_16506)">
<path d="M380.452 -13.0492L375.589 -2.72467L55.9913 -88.3666C50.1124 -93.416 43.0838 -97.1317 35.6027 -99.1363C22.195 -102.729 8.17485 -100.874 -3.87535 -93.9174C-5.30852 -93.0885 -6.72055 -92.1807 -8.07081 -91.2189C-10.7924 -89.2811 -13.3339 -87.0747 -15.6311 -84.6575C-16.7901 -83.4382 -17.9009 -82.1495 -18.9289 -80.8296C-23.2207 -75.3303 -26.315 -69.1068 -28.1303 -62.3321C-29.945 -55.5596 -30.3744 -48.6238 -29.4093 -41.7159C-29.3073 -40.9594 -27.2798 -24.3141 -25.2804 -7.87173L-57.4743 -16.4981L-106.931 88.9156L-22.1093 111.643L-17.2585 101.36L354.273 200.899L399.11 175.483L427.621 113.144L421.908 102.761L465.248 9.66582L380.452 -13.0492Z" fill="#C9CFD2"/>
<path d="M383.148 -7.23418L378.285 3.08469L53.6116 -83.9114C48.1161 -88.858 41.4712 -92.4716 34.3291 -94.3853C22.1903 -97.6379 9.49699 -95.9596 -1.41561 -89.6576C-2.71039 -88.9073 -3.98961 -88.086 -5.21557 -87.2124C-7.68001 -85.4583 -9.98377 -83.4569 -12.0638 -81.2698C-13.1121 -80.1656 -14.1178 -79 -15.0502 -77.8035C-18.9327 -72.8271 -21.7343 -67.1936 -23.3781 -61.0586C-25.021 -54.9275 -25.4107 -48.6495 -24.5365 -42.3986C-24.4171 -41.5344 -21.4958 -17.5278 -19.5164 -1.23556L-54.7667 -10.6808L-99.9785 85.6836L-24.8002 105.828L-20.3866 96.3589L352.736 196.319L395.475 171.653L422.113 113.346L416.386 102.947L458.307 12.903L383.148 -7.23418Z" fill="#231F20"/>
<path d="M390.636 10.058L385.783 20.339L336.719 7.19238L326.848 28.1012L316.398 25.3011L312.838 32.9471L323.246 35.7358L313.373 56.6375L362.214 69.7245L357.364 80.0093L404.258 92.5747L407.818 84.9287L369.117 74.5589L375.219 61.6277L413.846 71.9776L417.408 64.3324L370.668 51.8086L365.815 62.0926L325.132 51.1917L341.268 17.0121L382.18 27.9745L377.326 38.2585L423.753 50.6987L427.313 43.0526L389.084 32.8094L395.186 19.8781L433.344 30.1024L436.903 22.4564L390.636 10.058ZM30.6245 -81.3732C12.7519 -86.1622 -5.61987 -75.5541 -10.4093 -57.6797C-15.1988 -39.8053 -4.59134 -21.4356 13.2811 -16.6467C25.7004 -13.319 38.3599 -17.4254 46.5361 -26.2362L42.7923 -27.2393L43.1427 -29.503L37.043 -31.1374L35.1121 -29.3235L29.8273 -30.7395L30.2876 -32.9475L24.3227 -34.5458L22.2812 -32.7353L13.8255 -35.001C11.2138 -35.7008 9.25236 -37.9484 9.50132 -40.517C9.6152 -41.7264 9.94054 -42.889 10.4263 -43.9567L6.28361 -37.0252L1.62592 -38.2698C1.62592 -38.2698 0.759297 -44.8681 0.550965 -46.4517C-0.266785 -45.0547 -3.44754 -39.6293 -3.44754 -39.6293L-7.63255 -40.7506L-1.22184 -51.6978L-2.6587 -52.0828L-0.741904 -55.3027L4.4939 -53.8997L5.84461 -44.3207L8.67323 -49.0563L7.22553 -49.4377L9.15032 -52.6751L14.7296 -51.1572L11.5882 -45.9406C13.3591 -48.5575 17.2701 -50.5225 21.1778 -49.4754L27.4525 -47.7711L24.5614 -42.8389L20.4837 -43.9315C20.4837 -43.9315 21.1253 -45.0174 21.434 -45.542L20.5107 -45.8092C18.2911 -46.4039 15.2169 -43.6621 14.6027 -41.3701C13.9885 -39.0779 15.7199 -38.1352 16.2002 -38.0065L20.7733 -36.7646L28.5945 -43.712L27.3027 -44.0746L29.202 -47.3026L37.719 -45.0204L35.6011 -34.7881L41.508 -40.252L40.2059 -40.6009L42.1337 -43.8375L50.5282 -41.5882L47.8094 -27.6915C50.7739 -31.281 53.0342 -35.5485 54.3171 -40.3366C59.1065 -58.2107 48.4989 -76.5838 30.6245 -81.3732ZM-47.3541 6.5642L-50.9134 14.2102L-12.213 24.58L-18.3139 37.5081L-56.9405 27.1581L-60.4998 34.8042L-13.7604 47.328L-8.9104 37.0461L31.7758 47.948L15.6367 82.1267L-25.2722 71.1652L-20.4214 60.8803L-66.8487 48.4402L-70.4079 56.0863L-32.1797 66.3295L-38.2814 79.2607L-76.4359 69.0373L-79.9951 76.6833L-33.7279 89.0806L-28.8779 78.7988L20.183 91.9446L30.0573 71.0366L42.8236 74.4573L46.3828 66.8112L33.6624 63.4028L43.5329 42.4972L-5.30531 29.411L-0.455344 19.1292L-47.3541 6.5642Z" fill="#005EB8"/>
<path d="M77.5406 -63.4726L48.4276 -0.948247L49.0158 -0.790634L57.8944 1.58837C58.9728 1.87733 59.9578 1.86599 60.7914 1.52401C61.6229 1.18149 62.3033 0.508488 62.7799 -0.517445L82.1956 -42.231L68.3963 4.40369L80.4855 7.64297C82.2442 8.11421 83.5765 7.8489 84.7046 6.82295C85.0797 6.48214 85.4331 6.055 85.7702 5.54219L111.91 -34.2688L91.0764 10.4811L100.546 13.0185C101.625 13.3074 102.603 13.2945 103.437 12.9525C104.27 12.6105 104.955 11.9386 105.432 10.9127L133.124 -48.5778L112.503 -54.1031L84.8424 -11.9846L97.4948 -54.7067C98.048 -56.7713 97.4119 -58.1472 95.255 -58.7251L77.5406 -63.4726ZM184.956 -34.6907L155.846 27.8346L166.719 30.7479C167.259 30.8924 167.774 30.9624 168.26 30.9539C168.744 30.9428 169.198 30.853 169.613 30.6828C170.447 30.3408 171.128 29.6681 171.605 28.6421L180.761 9.09171L185.54 10.3723L184.519 22.8096L183.496 35.2431L195.401 38.4331C196.548 38.7404 197.456 38.4519 198.06 37.75C198.44 37.3053 198.726 36.7285 198.786 35.9249L200.436 12.1575L202.243 11.4039L208.231 8.92039L220.565 -17.613L215.703 -26.4517L184.956 -34.6907ZM240.075 -19.9216L228.908 -15.3779L206.002 33.7375L210.867 42.577L232.144 48.278L243.307 43.7334L249.463 30.5145C249.926 29.5331 250.021 28.707 249.732 28.0517C249.587 27.7248 249.348 27.4391 249.008 27.2009C248.668 26.9629 248.234 26.7701 247.694 26.6257L236.54 23.6368L232.044 33.2813C231.952 33.4876 231.832 33.6515 231.715 33.8135C231.211 34.492 230.491 34.7761 229.505 34.5119L224.254 33.1049C223.693 32.9546 223.364 32.6892 223.231 32.3383C223.098 31.9894 223.163 31.5559 223.395 31.0655L240.171 -4.92641C240.416 -5.46392 240.748 -5.85143 241.169 -6.06445C241.592 -6.27891 242.103 -6.31651 242.713 -6.15311L247.961 -4.74691C249.086 -4.44534 249.285 -3.6895 248.821 -2.71058L244.523 6.58643L255.393 9.49901C256.472 9.78797 257.459 9.77716 258.29 9.43465C258.706 9.26242 259.085 9.00921 259.418 8.66965C259.752 8.33256 260.041 7.90517 260.279 7.39314L266.214 -5.38237L261.349 -14.2219L240.075 -19.9216ZM276.722 -10.1021L262.165 21.1617L247.609 52.4223L258.482 55.3357C260.637 55.9131 262.414 55.2838 263.368 53.2299L267.581 44.1599L273.575 31.2523L283.51 33.9145L271.886 58.9266L282.762 61.8408C284.917 62.4182 286.692 61.7886 287.644 59.7342L315.34 0.244528L300.996 -3.59894L295.076 9.1314L289.153 21.8609L279.218 19.1987L291.06 -6.26087L276.722 -10.1021ZM148.119 -44.5579L128.741 -14.5925L116.975 3.59768L109.356 15.377L120.98 18.4915C121.519 18.636 122.015 18.7008 122.478 18.686C123.398 18.6552 124.173 18.3099 124.834 17.6593C125.163 17.3334 125.466 16.933 125.745 16.4552L130.491 8.48364L139.679 10.9455L135.789 22.4599L150.507 26.4035L168.607 -35.1545C168.764 -35.7408 168.815 -36.2848 168.768 -36.7829C168.721 -37.281 168.575 -37.7286 168.336 -38.1265C168.098 -38.5225 167.765 -38.868 167.347 -39.1503C166.927 -39.435 166.422 -39.6541 165.836 -39.8112L148.119 -44.5579ZM153.8 -30.8831L143.516 -0.382558L136.766 -2.191L153.8 -30.8831ZM193.971 -19.213L202.313 -16.9777C202.876 -16.8269 203.206 -16.5622 203.34 -16.2133C203.471 -15.8649 203.405 -15.4317 203.173 -14.9413L196.969 -1.53176C196.48 -0.457513 195.646 0.0200581 194.422 -0.307779L186.175 -2.51765L193.963 -19.2168L193.971 -19.213ZM21.1968 -49.4722C17.2891 -50.5193 13.3788 -48.5573 11.608 -45.9405L14.7494 -51.1571L9.1693 -52.672L7.24451 -49.4346L8.69221 -49.0532L5.86359 -44.3176L4.51373 -53.8997L-0.722088 -55.3027L-2.63889 -52.0828L-1.20202 -51.6978L-7.61357 -40.7475L-3.42856 -39.6261C-3.42856 -39.6261 -0.246592 -45.0513 0.573081 -46.4477C0.779353 -44.8646 1.6449 -38.2667 1.6449 -38.2667L6.30258 -37.022L10.4453 -43.9536C9.95761 -42.8864 9.63349 -41.7202 9.5195 -40.5109C9.27241 -37.9418 11.2358 -35.697 13.8475 -34.9972L22.3032 -32.7315L24.3417 -34.5428L30.3066 -32.9445L29.8463 -30.7365L35.1342 -29.3197L37.062 -31.1344L43.1617 -29.5L42.8113 -27.2363L46.5551 -26.2332L47.8321 -27.6904L50.5471 -41.585L42.1526 -43.8343L40.2247 -40.5977L41.5268 -40.2488L35.62 -34.7849L37.7378 -45.0172L29.224 -47.2985L27.3186 -44.0722L28.6165 -43.7079L20.7921 -36.7614L16.2199 -38.0062C15.7395 -38.135 14.0074 -39.0747 14.6215 -41.3667C15.2362 -43.6608 18.3128 -46.4031 20.5303 -45.8089L21.4528 -45.5388C21.1447 -45.0161 20.5025 -43.9283 20.5025 -43.9283L24.5802 -42.8356L27.4714 -47.7678L21.1968 -49.4722ZM86.9877 19.7781L57.8779 82.3033L67.3447 84.8399C68.0623 85.0322 68.7131 85.0375 69.33 84.9549C70.5682 84.7886 71.5941 84.104 72.2302 82.734L91.6427 41.0197L77.8438 87.6528L89.9361 90.8929C90.5204 91.0495 91.0593 91.1246 91.5573 91.1171C93.0555 91.0941 94.2051 90.3273 95.2177 88.7913L121.361 48.9812L100.527 93.7295L109.994 96.2661C110.533 96.4106 111.048 96.4802 111.532 96.4712C112.5 96.4511 113.347 96.114 114.016 95.4359C114.35 95.0969 114.642 94.6723 114.88 94.1602L142.572 34.6698L121.951 29.1445L108.12 50.2025L94.2939 71.2622L106.944 28.5361C107.22 27.5048 107.2 26.6476 106.843 25.974C106.481 25.3012 105.783 24.8101 104.707 24.5216L86.9893 19.7743L86.9877 19.7781ZM157.568 38.6901L138.186 68.6609L118.802 98.6278L130.425 101.742C130.49 101.76 130.541 101.752 130.603 101.767C131.599 102.002 132.463 101.979 133.197 101.654C133.98 101.311 134.634 100.659 135.191 99.7029L139.94 91.7352L149.125 94.1963L145.238 105.711L159.953 109.654L163.606 97.2328L178.053 48.0967C178.524 46.3399 178.051 44.9511 176.795 44.1017C176.375 43.8189 175.869 43.594 175.282 43.4369L157.568 38.6901ZM194.405 48.5605L165.292 111.085L195.944 119.298L201.524 117.027L207.108 114.753L219.67 87.8223L230.014 65.6381L225.149 56.7986L194.405 48.5605ZM241.83 61.2679L212.72 123.793L222.656 126.455C224.812 127.033 226.589 126.406 227.541 124.35L241.778 93.7029L239.26 127.49C239.169 128.571 239.378 129.478 239.845 130.181C240.309 130.883 241.03 131.379 241.969 131.63L252.462 134.442L281.575 71.9176L268.171 68.3262L252.489 102.099L255.233 64.8595L241.83 61.2679ZM290.383 74.2776L275.829 105.542L261.273 136.803L290.519 144.639C291.235 144.831 291.888 144.837 292.505 144.754C293.669 144.598 294.631 143.953 295.27 142.731C295.309 142.655 295.366 142.61 295.403 142.53L299.407 133.959L281.037 129.036L284.357 121.891L287.681 114.743L297.99 117.506C299.066 117.794 299.986 117.742 300.786 117.378C301.587 117.015 302.272 116.343 302.875 115.4L308.191 107.18L293.099 103.136L298.23 92.0529L299.305 89.7307L313.741 93.5988C314.768 93.8741 315.704 93.8516 316.512 93.553C317.395 93.2267 318.126 92.5639 318.624 91.4889L321.579 84.9975L322.537 82.8932L290.383 74.2776ZM336.874 86.735L332.064 88.6936L325.71 91.2795L314.848 114.589L319.735 123.333L335.669 127.602L329.784 140.191C329.662 140.459 329.519 140.692 329.353 140.883C328.854 141.456 328.159 141.663 327.245 141.419L320.594 139.636C319.469 139.335 319.242 138.672 319.731 137.599L321.634 133.489C321.875 132.976 322.017 132.51 322.064 132.094C322.205 130.845 321.484 130.03 319.866 129.597L308.711 126.608L302.338 140.271L307.203 149.111L329.887 155.189L335.467 152.917L340.63 150.814L341.05 150.644L350.62 130.199L352.329 126.543L347.463 117.703L331.533 113.434L336.977 101.732C337.466 100.657 338.296 100.178 339.516 100.505L345.232 102.037C346.075 102.263 346.398 102.742 346.313 103.384C346.283 103.596 346.211 103.83 346.095 104.074L344.751 107.03L343.408 109.984L354.278 112.896C356.435 113.474 358.211 112.847 359.164 110.79L363.489 101.402L360.266 95.5477L358.623 92.5626L336.874 86.735ZM382.523 98.9667L377.714 100.925L371.36 103.511L360.494 126.82L365.385 135.565L381.319 139.834L375.433 152.423C375.311 152.69 375.168 152.924 375.002 153.115C374.506 153.688 373.808 153.895 372.895 153.65L366.24 151.867C365.397 151.641 365.058 151.214 365.149 150.56C365.18 150.344 365.256 150.098 365.377 149.83L367.283 145.721C367.997 144.178 367.857 143.084 366.832 142.392C366.491 142.159 366.052 141.973 365.515 141.829L354.357 138.839L347.984 152.502L352.849 161.341L375.533 167.419L386.696 162.875L397.978 138.772L393.113 129.932L377.179 125.663L382.626 113.964C382.839 113.496 383.129 113.165 383.475 112.941C383.528 112.907 383.567 112.853 383.62 112.825C384.043 112.613 384.553 112.573 385.165 112.737L390.881 114.269C391.546 114.447 391.855 114.798 391.926 115.248C391.975 115.557 391.93 115.906 391.741 116.305L390.397 119.261L389.054 122.215L399.927 125.128C402.084 125.706 403.855 125.077 404.81 123.022L409.134 113.633L408.947 113.291L404.272 104.795L382.523 98.9667ZM413.005 115.192C411.633 114.825 410.189 115.569 409.806 116.998C409.419 118.443 410.297 119.809 411.67 120.177C413.027 120.541 414.471 119.797 414.858 118.352C415.241 116.922 414.362 115.556 413.005 115.192ZM412.895 115.606C414.02 115.908 414.675 117.038 414.359 118.218C414.037 119.418 412.907 120.062 411.781 119.76C410.64 119.454 409.987 118.333 410.309 117.133C410.625 115.952 411.753 115.3 412.895 115.606ZM411.757 115.991L410.987 118.864L411.422 118.981L411.756 117.734L412.259 117.869L412.681 119.318L413.172 119.45L412.693 117.962C413.131 118.023 413.515 117.888 413.653 117.372C413.805 116.805 413.531 116.466 412.851 116.284L411.757 115.991ZM412.094 116.475L412.688 116.634C412.99 116.715 413.298 116.868 413.203 117.225C413.085 117.666 412.75 117.603 412.38 117.504L411.856 117.363L412.094 116.475ZM163.252 52.3692L152.972 82.8674L146.223 81.0589L163.252 52.3692ZM203.423 64.0392L211.769 66.2754C212.435 66.454 212.742 66.8049 212.813 67.2547C212.865 67.5647 212.817 67.9126 212.628 68.3118L195.852 104.304C195.73 104.571 195.587 104.805 195.421 104.996C194.923 105.568 194.225 105.779 193.31 105.533L185.062 103.324L203.423 64.0392Z" fill="white"/>
<path d="M41.4809 4.11863L15.9202 19.4012L29.3911 23.0107L55.0303 7.74917L47.9562 5.85369L41.4809 4.11863ZM64.2679 10.2244L38.6993 25.5048L52.9392 29.3204L65.3303 21.9721L78.6433 14.0761L67.9235 11.2037L64.2679 10.2244ZM221.23 133.69C221.051 133.651 220.878 133.628 220.698 133.58L210.784 130.924L206.458 129.765L191.804 138.227L194.188 138.866L206.884 142.268L221.23 133.69ZM255.475 142.869L241.044 151.418L271.031 159.453L285.373 150.88L259.35 143.907L256.525 143.151L255.475 142.869ZM50.1413 87.8671L35.4537 96.347L38.8422 97.2549L48.6244 99.8761L63.2109 91.3691L55.9469 89.4227L50.1413 87.8671ZM70.7386 93.3861L56.0509 101.866L61.4337 103.308L71.7858 106.082L86.3754 97.576L75.913 94.7726L70.7386 93.3861ZM93.9035 99.5932L79.2159 108.073L81.4923 108.683L90.3034 111.044L91.9823 111.494L106.569 102.987L98.5971 100.851L93.9035 99.5932ZM114.393 105.083L99.7049 113.563L101.926 114.158L112.768 117.063L127.358 108.557L116.871 105.747L114.393 105.083ZM137.558 111.29L122.873 119.771L131.451 122.07L136.794 123.501L139.497 124.225L154.086 115.719L143.308 112.831L137.558 111.29ZM160.723 117.497L146.035 125.977L167.446 131.714L173.947 133.456L188.534 124.949L164.98 118.638L163.365 118.205L160.723 117.497ZM235.32 137.486L220.633 145.966L223.46 146.723L233.242 149.344L247.832 140.838L240.565 138.891L235.32 137.486ZM302.39 155.457L287.957 164.005L301.388 167.604L306.366 168.938L320.708 160.365L305.276 156.23L302.39 155.457ZM347.526 167.551L333.093 176.099L346.524 179.698L351.503 181.032L365.841 172.459L350.412 168.324L347.526 167.551Z" fill="#707A84"/>
</g>
<defs>
<clipPath id="clip0_1394_16506">
<rect width="536.479" height="228.926" fill="white" transform="translate(-50.6121 -131.04) rotate(15)"/>
</clipPath>
</defs>
</svg>
