<?xml version="1.0" encoding="UTF-8" standalone="no"?>
<!-- Created with Inkscape (http://www.inkscape.org/) -->

<svg
   version="1.1"
   id="svg59"
   width="682.66669"
   height="682.66669"
   viewBox="0 0 682.66669 682.66669"
   xmlns="http://www.w3.org/2000/svg"
   xmlns:svg="http://www.w3.org/2000/svg">
  <defs
     id="defs63" />
  <g
     id="g65">
    <rect
       style="fill:#ffffff"
       id="rect297"
       width="691.34467"
       height="688.45203"
       x="-5.7853107"
       y="-5.7853107" />
    <g
       id="g177">
      <path
         style="fill:#b7bac3;stroke-width:1.33333"
         d="M 0,341.33334 V 0 H 341.33334 682.66669 V 341.33334 682.66669 H 341.33334 0 Z m 376.52736,228.73545 c 51.58941,-13.08673 90.60863,-51.60409 104.47136,-103.12769 3.12798,-11.62574 3.48187,-15.3127 3.48187,-36.27442 0,-20.91269 -0.35816,-24.66384 -3.45247,-36.15851 -14.22554,-52.84474 -55.38869,-91.6118 -109.69477,-103.30945 -5.13334,-1.10572 -16.16848,-2.47807 -24.52254,-3.04966 -12.67324,-0.86709 -15.50313,-1.46244 -17.08443,-3.59414 -2.36594,-3.1895 -2.6977,-1.30856 8.71451,-49.40691 12.47019,-52.5573 28.35935,-123.46591 27.91192,-124.56264 -0.46634,-1.1431 -102.35963,35.23927 -105.28257,37.59258 -1.45419,1.17079 -3.97847,9.20902 -7.06222,22.48872 -2.63952,11.36667 -11.03303,47.66667 -18.65224,80.66667 -7.61921,33 -18.69147,80.28668 -24.605,105.08153 -13.20755,55.37786 -13.93885,59.92142 -13.02407,80.91848 2.29435,52.66201 32.13607,98.89311 78.93997,122.2946 14.99172,7.49571 33.74977,12.31344 55.33333,14.21155 11.92347,1.04857 32.34726,-0.68097 44.52735,-3.77071 z m -51.19402,-62.80881 c -26.68686,-5.73167 -49.89581,-26.44558 -58.56736,-52.2712 -13.0972,-39.00609 9.48371,-83.21967 49.99115,-97.88306 9.83449,-3.56001 29.84154,-4.78885 40.4415,-2.48392 4.10742,0.89315 11.66805,3.63615 16.80138,6.09555 40.28904,19.30264 56.68436,67.50224 36.26594,106.616 -6.32623,12.11859 -22.26256,27.53012 -34.4549,33.32023 -17.23374,8.18426 -33.3253,10.29029 -50.47771,6.6064 z"
         id="path191" />
      <path
         style="fill:#989ca9;stroke-width:1.33333"
         d="M 0,341.33334 V 0 H 341.33334 682.66669 V 341.33334 682.66669 H 341.33334 0 Z M 358.22084,574.5747 c 55.80367,-6.22248 103.1653,-44.5387 120.99579,-97.88731 5.88233,-17.59988 7.86745,-32.32003 7.01535,-52.02071 -1.65388,-38.23816 -14.89956,-68.23392 -42.13066,-95.40782 -25.31015,-25.25698 -58.38845,-40.04822 -93.96292,-42.01632 -17.28274,-0.95613 -19.12106,-1.37053 -20.12603,-4.5369 -0.45761,-1.44183 3.4486,-20.79044 8.68048,-42.99691 15.87995,-67.40163 29.42156,-129.1116 28.61766,-130.41236 -0.42543,-0.68835 -4.4031,0.1362 -9.03526,1.87296 -4.55138,1.70647 -28.30177,10.24148 -52.77865,18.96668 -31.17338,11.11227 -45.03411,16.6659 -46.27519,18.54122 -0.97448,1.47248 -3.87229,11.67248 -6.4396,22.66667 -2.56729,10.99419 -11.84775,50.88944 -20.62323,88.65611 -8.77547,37.76667 -19.62165,83.96667 -24.10263,102.66667 -10.16693,42.42873 -12.05594,53.18789 -12.05594,68.66667 0,60.32565 38.67849,115.35174 95.38937,135.70599 9.01846,3.23684 29.36148,7.14557 41.94396,8.05915 3.3,0.23961 7.37366,0.54046 9.05255,0.66858 1.67891,0.12814 8.80463,-0.40845 15.83495,-1.19237 z m -28.22083,-67.35022 c -11.8458,-2.86313 -15.73743,-4.15229 -23.33333,-7.7295 -12.06844,-5.68351 -28.73579,-22.27814 -34.42946,-34.27923 -14.87512,-31.35375 -8.6903,-65.21511 16.22423,-88.82631 15.72297,-14.90047 32.76077,-22.00341 52.87189,-22.04195 32.87513,-0.0629 63.12907,22.56614 73.51325,54.98586 3.85282,12.02865 3.85282,31.97135 0,44 -10.02926,31.31167 -37.72566,52.63121 -70.17991,54.02159 -6.6,0.28274 -13.2,0.22404 -14.66667,-0.1304 z"
         id="path189" />
      <path
         style="fill:#7c8293;stroke-width:1.33333"
         d="M 0,341.33334 V 0 H 341.33334 682.66669 V 341.33334 682.66669 H 341.33334 0 Z m 376.44024,230.80869 c 33.08731,-8.72884 62.75478,-28.50974 82.2022,-54.80868 49.3079,-66.67951 33.24131,-160.38082 -35.34313,-206.12327 -21.64332,-14.43504 -44.79052,-22.20511 -73.2993,-24.60516 -8.8,-0.74084 -16.75,-1.61119 -17.66667,-1.9341 -2.82688,-0.99582 -1.91017,-7.78233 4.91738,-36.40361 14.11055,-59.15187 30.74929,-133.60558 30.74929,-137.59445 0,-1.47002 -0.47972,-2.67276 -1.06604,-2.67276 -1.49977,0 -101.63047,35.74224 -105.17936,37.5444 -4.58996,2.33081 -2.47525,-5.56685 -27.07692,101.12228 -6.51039,28.23333 -17.58358,75.51136 -24.6071,105.06228 -14.16872,59.61383 -16.07234,72.14155 -14.01237,92.21546 3.72965,36.34453 16.74115,63.7272 42.51265,89.46785 24.92731,24.89746 49.7223,36.81975 86.76247,41.7184 11.14168,1.47352 40.75761,-0.25837 51.1069,-2.98864 z m -52.5574,-66.79916 c -16.04756,-4.06353 -31.9103,-13.97935 -41.81534,-26.13881 -21.23633,-26.06983 -22.78592,-61.71418 -3.91685,-90.09731 26.71171,-40.18014 82.57546,-45.8983 116.43126,-11.9178 39.66705,39.81316 25.44162,105.31804 -27.24856,125.4734 -6.29375,2.40753 -11.27032,3.14891 -23.33334,3.47604 -8.43333,0.22871 -17.48605,-0.12933 -20.11717,-0.79552 z"
         id="path187" />
      <path
         style="fill:#6e7588;stroke-width:1.33333"
         d="M 0,341.33334 V 0 H 341.33334 682.66669 V 341.33334 682.66669 H 341.33334 0 Z m 369.57951,232.63892 c 61.53601,-12.79299 107.23381,-60.52832 116.44493,-121.63686 4.6826,-31.06531 -0.19576,-60.21915 -14.7749,-88.29713 -23.03196,-44.3573 -66.67801,-72.91307 -118.49097,-77.5237 -21.95432,-1.95363 -22.09189,-1.98913 -22.09189,-5.70179 0,-1.72502 3.30716,-17.01332 7.34925,-33.97398 6.05822,-25.42041 27.26923,-118.60384 30.617,-134.50546 0.77218,-3.66779 0.52982,-4.33334 -1.57801,-4.33334 -3.85701,0 -105.83376,36.8741 -108.01836,39.0587 -1.99558,1.99557 -4.78379,13.15385 -22.89091,91.60797 -5.8392,25.30001 -16.94766,72.70001 -24.68543,105.33334 -15.90247,67.06718 -17.39059,75.56447 -16.3506,93.36339 3.50009,59.90211 41.39816,111.2343 96.6095,130.85566 20.13908,7.15716 57.74205,9.93568 77.86039,5.7532 z m -41.5795,-68.13846 c -29.2308,-5.65604 -54.08524,-28.93742 -60.65924,-56.82009 -9.74529,-41.33326 17.55425,-83.57755 59.60303,-92.23184 5.65241,-1.16335 12.12772,-2.11519 14.38954,-2.11519 7.80307,0 24.50687,4.21955 33.24065,8.39691 12.09572,5.7854 28.60921,22.30433 34.54256,34.55394 13.94112,28.78204 9.19801,61.73879 -12.17371,84.58706 -14.94009,15.97231 -30.61031,23.11648 -52.27616,23.83315 -7.33334,0.24257 -14.83334,0.1508 -16.66667,-0.20394 z"
         id="path185" />
      <path
         style="fill:#515970;stroke-width:1.33333"
         d="M 0,341.33334 V 0 H 341.33334 682.66669 V 341.33334 682.66669 H 341.33334 0 Z m 358.83608,234.66003 c 59.32199,-6.79778 108.99228,-50.16075 124.80511,-108.95689 3.15568,-11.73362 3.50607,-15.36836 3.50607,-36.3698 0,-20.96172 -0.3539,-24.64868 -3.48187,-36.27441 -16.68552,-62.01505 -70.06788,-104.87262 -135.35362,-108.6675 -7.52852,-0.43761 -14.70017,-1.53561 -15.937,-2.43999 -2.07511,-1.51737 -1.655,-4.1327 5.44053,-33.86945 11.49431,-48.17164 31.51805,-137.22161 31.51805,-140.16772 0,-1.41952 -0.52031,-2.58094 -1.15624,-2.58094 -0.63594,0 -24.78594,8.44048 -53.66667,18.75662 -33.73859,12.05135 -53.53355,19.79691 -55.3724,21.66666 -2.00694,2.04066 -4.11379,8.28771 -7.05206,20.91006 -2.30453,9.9 -9.59125,41.4 -16.19271,70 -6.60144,28.6 -17.98802,77.14956 -25.30352,107.8879 -7.31548,30.73834 -13.96574,60.13834 -14.77836,65.33333 -2.24362,14.34349 -0.69306,40.19736 3.34748,55.81524 6.22967,24.07946 18.60459,46.31971 35.9103,64.53812 25.52152,26.86753 54.346,40.56858 93.2662,44.33194 15.90212,1.53765 17.79286,1.54303 30.50071,0.0868 z m -33.50274,-71.40679 c -43.86862,-9.4559 -70.44868,-56.00616 -55.49797,-97.19491 7.14987,-19.69766 20.79129,-35.18915 38.5402,-43.76708 12.18377,-5.88834 20.36619,-7.83304 32.95777,-7.83304 36.93727,0 67.97275,26.78225 74.26254,64.08528 1.73225,10.2736 1.72964,12.99088 -0.0224,23.14331 -5.42104,31.4137 -28.13289,55.17961 -58.90684,61.64068 -11.41216,2.39601 -19.96715,2.37574 -31.33334,-0.0743 z"
         id="path183" />
      <path
         style="fill:#39445f;stroke-width:1.33333"
         d="M 0,341.33334 V 0 H 341.33334 682.66669 V 341.33334 682.66669 H 341.33334 0 Z M 378.80607,572.8807 c 50.54046,-13.56804 90.10079,-52.39255 104.41805,-102.47594 14.00479,-48.99027 0.98631,-102.17245 -34.03612,-139.04195 -13.14943,-13.84295 -24.47168,-22.15497 -41.85465,-30.72685 -18.00256,-8.87742 -35.00631,-13.5479 -56,-15.38172 -19.19623,-1.67683 -19.33334,-1.7158 -19.33334,-5.49508 0,-1.64516 4.24611,-21.014 9.43578,-43.04185 15.74074,-66.81234 29.12749,-127.80593 28.3328,-129.09176 -0.41307,-0.66836 -2.32998,-0.93894 -4.2598,-0.60129 -7.19435,1.25873 -104.93085,37.17148 -107.12541,39.36265 -2.3853,2.3816 -3.71592,7.65272 -23.12631,91.6131 -6.27282,27.13333 -17.72109,75.98879 -25.4406,108.56767 -15.62296,65.93405 -17.41878,77.59637 -15.16792,98.50228 5.61082,52.11287 37.42082,97.00329 84.2083,118.83513 21.36008,9.96697 40.46724,13.55852 68.4765,12.87141 14.82448,-0.36365 21.30256,-1.16553 31.47272,-3.8958 z m -57.30773,-69.65086 c -12.21204,-3.28456 -24.54553,-10.69606 -33.86724,-20.35168 -14.16106,-14.66832 -20.96442,-31.16688 -20.96442,-50.84001 0,-21.96264 6.6459,-37.72487 22.51472,-53.39862 11.72437,-11.58026 19.82441,-16.30849 34.26586,-20.00198 13.0432,-3.3359 22.72897,-3.3359 35.77217,0 13.33905,3.41156 22.03918,8.19465 32.2914,17.75297 25.22196,23.51484 31.4437,57.58156 16.24401,88.94283 -8.40813,17.34837 -27.7434,32.81452 -47.38724,37.90475 -10.00123,2.59157 -29.21824,2.5875 -38.86926,-0.008 z"
         id="path181" />
      <path
         style="fill:#11284a;stroke-width:1.33333"
         d="M 0,341.33334 V 0 H 341.33334 682.66669 V 341.33334 682.66669 H 341.33334 0 Z m 372.69673,233.97829 c 31.21571,-6.36908 63.54162,-26.17932 83.57375,-51.2164 46.63414,-58.28547 43.97418,-140.27131 -6.27046,-193.26903 -11.43383,-12.06032 -20.45974,-19.10256 -35.62807,-27.79794 -19.40846,-11.12606 -48.046,-19.02825 -68.95842,-19.02825 -15.1006,0 -14.84805,2.59121 -4.15851,-42.66667 13.9475,-59.05149 28.15149,-122.52585 29.01618,-129.66667 0.66905,-5.52509 0.45593,-6.33333 -1.66992,-6.33333 -2.17639,0 -85.21488,29.21805 -103.03095,36.25264 -3.903,1.54108 -7.92915,4.07294 -8.947,5.62639 -1.91805,2.92732 -3.57149,9.65416 -21.82374,88.78764 -6.00462,26.03333 -17.57776,75.23333 -25.71808,109.33334 -14.22989,59.60942 -14.82441,62.69404 -15.41898,80 -0.74154,21.58397 1.46321,36.38129 8.24984,55.36944 16.71624,46.77 58.01243,83.89571 103.8686,93.37896 23.51024,4.86203 46.99831,5.29372 66.91576,1.22988 z m -46.30876,-72.00939 c -14.63303,-2.91264 -25.68684,-9.01161 -37.1694,-20.50832 -11.539,-11.55321 -17.44631,-22.13653 -20.53733,-36.7939 -2.46138,-11.67163 -2.47412,-17.61289 -0.0623,-28.9943 2.94564,-13.90016 9.09048,-25.32331 19.53924,-36.32315 14.79953,-15.58002 32.49297,-23.34922 53.17513,-23.34922 19.37999,0 35.61459,6.65238 50.49746,20.69212 15.13101,14.27382 22.98699,32.4922 22.98699,53.30788 0,20.50767 -7.05026,37.20871 -22.00344,52.12303 -11.11619,11.08729 -22.28199,17.01072 -37.58478,19.93862 -12.01517,2.29888 -16.90501,2.28316 -28.8416,-0.0928 z"
         id="path179" />
    </g>
  </g>
</svg>
